<svg width="49" height="42" viewBox="0 0 49 42" fill="none" xmlns="http://www.w3.org/2000/svg">
<path d="M48.9205 19.9869C48.8023 19.6408 48.4438 19.077 46.8299 18.6566C43.3081 17.74 39.938 19.1027 38.9833 19.5029C36.8404 20.4005 35.299 21.624 34.6384 22.1553C34.0275 22.646 33.5455 23.0949 33.2071 23.4261C31.2267 19.7841 29.2462 16.1421 27.2658 12.4987C26.0131 12.5055 24.759 12.5136 23.5063 12.5203L29.159 0.000386751H25.5203L12.6695 28.4227C11.7713 14.0966 3.55004 18.4525 3.55004 1.60104C3.54064 1.45773 3.48828 0.948068 3.07742 0.520868C2.57257 -0.00502087 1.91735 -0.00231705 1.8059 0.000386751C1.67298 0.00714625 0.825747 0.0693336 0.3209 0.773673C0.0966729 1.08596 0.0255109 1.40636 0 1.60104C0 17.8549 11.4571 13.0868 12.1754 29.5259C11.778 30.6804 11.3792 31.8336 10.9818 32.9867C10.0365 34.0682 9.30611 35.3931 9.24837 36.9478C9.19332 38.4592 9.75859 40.5695 11.3617 41.5132C12.7058 42.304 14.223 41.9458 15.1159 41.7213C15.5952 41.601 17.3044 41.14 20.6155 37.9428C21.6937 36.9018 22.2052 36.2813 23.4512 34.8902C24.5992 33.6059 26.3044 31.7416 28.4916 29.4975C29.7229 30.1072 31.3287 31.0711 32.8849 32.6136C33.9604 33.6789 34.6317 34.6131 34.8573 34.9348L38.5174 41.8417L43.2651 41.8146C40.0038 35.8446 36.7437 29.8747 33.4824 23.906C34.4142 23.0313 36.1221 21.6632 38.6235 20.8615C39.601 20.5479 40.5637 20.2397 41.85 20.264C45.3476 20.3289 47.0676 22.7758 48.3284 21.9336C48.9192 21.5388 49.1313 20.606 48.9205 19.9882V19.9869ZM25.1484 32.1242C22.5798 34.6279 20.9941 35.9231 19.9495 36.7301C18.1154 38.1469 17.0668 38.7418 15.8544 39.169C13.608 39.9612 12.7085 39.4948 12.4977 39.3745C11.6236 38.8756 11.1765 37.8144 11.0932 37.0424C10.7025 33.441 17.3823 28.1145 23.9024 28.3686C25.3968 28.4268 26.7542 28.7702 27.9693 29.269C27.3289 29.9422 26.3608 30.9427 25.1484 32.1242ZM24.2676 27.8103C22.7638 27.7022 21.6185 27.8509 20.9888 27.9347C20.1348 28.0496 18.0751 28.3443 15.8718 29.4285L23.4606 12.619C26.7891 19.4448 28.9656 23.8033 30.3472 26.4719C29.7887 27.1546 29.1858 27.8779 28.5346 28.6255C26.7206 27.9861 25.0598 27.8657 24.2676 27.809V27.8103ZM32.6593 30.8088C32.5291 30.9264 32.0471 30.4965 31.0951 29.9044C30.2613 29.3853 29.5362 29.0324 29.0448 28.8121C29.2798 28.5133 29.5362 28.2037 29.8128 27.8887C30.0867 27.5791 30.3566 27.2912 30.6198 27.0235C30.8588 27.4128 31.2119 27.9928 31.6308 28.7053C32.6432 30.4289 32.7466 30.7291 32.6593 30.8088Z" fill="#393938"/>
</svg>
